<?xml version="1.0" encoding="utf-8"?>
<!-- Generator: Adobe Illustrator 16.0.0, SVG Export Plug-In . SVG Version: 6.00 Build 0)  -->
<!DOCTYPE svg PUBLIC "-//W3C//DTD SVG 1.1//EN" "http://www.w3.org/Graphics/SVG/1.1/DTD/svg11.dtd">
<svg version="1.1" id="Layer_1" xmlns="http://www.w3.org/2000/svg" xmlns:xlink="http://www.w3.org/1999/xlink" x="0px" y="0px"
	 width="1400px" height="1524.75px" viewBox="0 0 1400 1524.75" enable-background="new 0 0 1400 1524.75" xml:space="preserve">
<g>
	<defs>
		<rect id="SVGID_1_" y="-0.004" width="1400" height="1524.754"/>
	</defs>
	<clipPath id="SVGID_2_">
		<use xlink:href="#SVGID_1_"  overflow="visible"/>
	</clipPath>
	<path clip-path="url(#SVGID_2_)" fill="#231F20" d="M981.004,1040.367c-0.002,0.005-0.003,0.01-0.004,0.015
		C981.012,1040.337,981.011,1040.342,981.004,1040.367"/>
	<path clip-path="url(#SVGID_2_)" fill="#231F20" d="M818.377,732.662c0.002-0.008,0.004-0.016,0.006-0.023
		C818.37,732.687,818.371,732.685,818.377,732.662"/>
	<path clip-path="url(#SVGID_2_)" fill="#231F20" d="M832.593,486.248c-4.515,16.431-21.552,26.044-32.323,38.13
		c-11.507,12.913-18.629,27.86-18.551,45.348c0.012,2.473-0.508,7.446,0.969,9.532c1.27,1.793,0.978-1.226,0.972-2.585
		c-0.078-17.479,11.813-33.052,23.688-44.699c9.903-9.714,22.765-18.209,26.633-32.29c0.735-2.676,0.273-5.913-0.015-8.631
		C833.875,490.206,832.743,485.699,832.593,486.248"/>
	<path clip-path="url(#SVGID_2_)" fill="#231F20" d="M679.961,520.732c0-8.937-7.245-16.181-16.182-16.181
		c-8.936,0-16.181,7.244-16.181,16.181s7.245,16.182,16.181,16.182C672.716,536.914,679.961,529.669,679.961,520.732"/>
	<path clip-path="url(#SVGID_2_)" fill="#231F20" d="M670.269,540.925c-8.937,0-16.181,7.245-16.181,16.181
		c0,8.938,7.244,16.182,16.181,16.182s16.182-7.245,16.182-16.182C686.451,548.17,679.206,540.925,670.269,540.925"/>
	<path clip-path="url(#SVGID_2_)" fill="#231F20" d="M658.754,724.723c0-10.568-8.566-19.134-19.134-19.134
		c-10.567,0-19.134,8.566-19.134,19.134c0,10.567,8.567,19.134,19.134,19.134C650.188,743.857,658.754,735.29,658.754,724.723"/>
	<path clip-path="url(#SVGID_2_)" fill="#231F20" d="M929.152,658.146c8.937,0,16.182-7.244,16.182-16.181
		s-7.245-16.181-16.182-16.181c-8.938,0-16.181,7.244-16.181,16.181S920.215,658.146,929.152,658.146"/>
	<path clip-path="url(#SVGID_2_)" fill="#231F20" d="M561.354,854.276c11.162-0.542,19.771-10.03,19.229-21.192
		c-0.543-11.162-10.031-19.771-21.193-19.229c-11.162,0.542-19.771,10.031-19.229,21.191
		C540.705,846.21,550.192,854.819,561.354,854.276"/>
	<path clip-path="url(#SVGID_2_)" fill="#231F20" d="M1040.825,1008.33c-0.523-10.778-9.687-19.091-20.465-18.567
		c-10.778,0.524-19.091,9.687-18.567,20.464c0.524,10.779,9.687,19.092,20.465,18.568S1041.348,1019.109,1040.825,1008.33"/>
	<path clip-path="url(#SVGID_2_)" fill="#231F20" d="M929.13,1107.105c-0.524-10.778-9.687-19.092-20.465-18.568
		c-10.778,0.524-19.092,9.687-18.567,20.464c0.523,10.779,9.686,19.093,20.464,18.568
		C921.341,1127.045,929.652,1117.884,929.13,1107.105"/>
	<path clip-path="url(#SVGID_2_)" fill="#231F20" d="M862.659,1147.057c0.522,10.777,9.687,19.091,20.465,18.566
		c10.778-0.523,19.091-9.686,18.567-20.464s-9.687-19.091-20.465-18.567S862.136,1136.277,862.659,1147.057"/>
	<path clip-path="url(#SVGID_2_)" fill="#231F20" d="M556.524,904.249c11.162-0.542,19.771-10.03,19.229-21.192
		c-0.543-11.162-10.031-19.771-21.193-19.229c-11.162,0.542-19.771,10.029-19.229,21.191
		C535.874,896.183,545.362,904.791,556.524,904.249"/>
	<path clip-path="url(#SVGID_2_)" fill="#231F20" d="M526.422,554.503c-8.678,0-15.713,7.035-15.713,15.713
		s7.035,15.713,15.713,15.713c8.678,0,15.713-7.035,15.713-15.713S535.1,554.503,526.422,554.503"/>
	<path clip-path="url(#SVGID_2_)" fill="#231F20" d="M510.709,592.195c-8.678,0-15.713,7.035-15.713,15.713
		c0,8.678,7.035,15.713,15.713,15.713s15.713-7.035,15.713-15.713C526.422,599.23,519.387,592.195,510.709,592.195"/>
	<path clip-path="url(#SVGID_2_)" fill="#231F20" d="M829.974,691.856c4.707-3.149,9.548-6.25,14.509-9.3
		c4.919-3.118,9.95-6.2,14.937-9.499c10.133-6.58,19.797-14.313,28.229-23.251c4.179-4.519,8.118-9.304,11.485-14.532
		c3.414-5.181,6.257-10.801,8.328-16.698c2.025-5.92,3.175-12.155,3.21-18.357c0.048-6.205-1.173-12.318-3.291-17.93
		c-0.162-0.431-0.606-0.707-1.081-0.641c-0.551,0.078-0.933,0.587-0.855,1.137l0.002,0.01c1.625,11.522-0.458,22.839-5.543,32.611
		c-5.041,9.816-12.439,18.298-20.747,25.749c-4.161,3.736-8.581,7.206-13.157,10.476c-4.608,3.269-9.282,6.271-14.245,9.177
		l-15.121,8.815c-5.066,3.041-10.211,6.108-15.235,9.515c-5.001,3.44-9.976,7.084-14.614,11.237c-1.182,1.003-2.3,2.11-3.448,3.162
		c-1.127,1.083-2.198,2.233-3.276,3.368c-1.058,1.156-2.191,2.238-3.179,3.453l-2.979,3.621
		c-7.794,9.772-13.744,20.859-17.835,32.481c-4.066,11.623-6.402,23.836-6.28,36.034c0.096,12.172,2.475,24.282,7.275,35.203
		c0.185,0.422,0.644,0.675,1.115,0.581c0.545-0.108,0.899-0.636,0.792-1.181l-0.003-0.013c-2.265-11.465-2.859-22.977-1.713-34.237
		c1.035-11.269,4.159-22.231,8.807-32.366c2.246-5.107,5.12-9.899,8.118-14.546c0.758-1.158,1.623-2.246,2.425-3.371
		c0.838-1.1,1.583-2.262,2.486-3.309l2.665-3.162l1.326-1.578l1.42-1.496l2.822-2.996c0.93-1.006,1.998-1.878,2.985-2.823
		c1.02-0.915,1.978-1.885,3.004-2.793c1.056-0.883,2.06-1.807,3.154-2.655C820.768,698.309,825.257,694.987,829.974,691.856"/>
	<path clip-path="url(#SVGID_2_)" fill="#231F20" d="M706.936,769.94c-2.507-3.729-6.056-6.948-10.231-9.137
		c-4.219-2.134-8.971-3.159-13.559-2.994c-4.613,0.068-9.059,1.238-13.152,3.059c-4.097,1.829-7.818,4.46-10.982,7.698
		c-3.137,3.232-5.652,7.107-7.246,11.537c-0.796,2.212-1.266,4.599-1.386,7.041c-0.053,1.22-0.032,2.457,0.126,3.686l0.117,0.922
		l0.192,0.957c0.113,0.645,0.314,1.253,0.509,1.864c1.632,4.835,4.9,8.862,9.422,11.247c2.248,1.18,4.854,1.917,7.52,1.878
		c0.661,0.011,1.325-0.095,1.982-0.154c0.658-0.11,1.329-0.264,1.971-0.442c1.27-0.419,2.493-0.945,3.554-1.672
		c4.299-2.836,6.788-7.473,6.977-12.355c0.055-2.444-0.632-4.94-1.905-6.959c-1.275-2.025-3.07-3.556-5.034-4.568
		c-1.967-1.01-4.105-1.58-6.242-1.589c-1.611,0.016-3.214,0.321-4.641,0.948c-0.964,0.198-1.907,0.556-2.79,1.034
		c1.104-2.165,2.647-4.208,4.41-6.017c2.233-2.237,4.928-4.077,7.825-5.436c2.913-1.328,6.043-2.154,9.13-2.306
		c3.099-0.202,6.093,0.399,8.818,1.556c5.42,2.473,9.701,7.933,11.754,14.406c1.102,3.213,1.594,6.664,1.673,10.12
		c-0.021,3.526-0.409,7.127-1.239,10.708c-0.787,3.592-1.959,7.155-3.277,10.714c-0.659,1.78-1.391,3.542-2.144,5.306
		c-0.721,1.78-1.536,3.523-2.294,5.307l-0.003,0.006c-0.077,0.182-0.028,0.398,0.133,0.527c0.194,0.155,0.477,0.125,0.633-0.069
		c2.432-3.03,4.725-6.186,6.79-9.534c2.094-3.33,3.935-6.869,5.411-10.631c1.492-3.75,2.548-7.76,3.056-11.902
		c0.468-4.217,0.261-8.526-0.684-12.73C711.145,777.781,709.531,773.631,706.936,769.94"/>
	<path clip-path="url(#SVGID_2_)" fill="#231F20" d="M754.325,672.102c-2.789-1.928-5.902-3.337-9.083-4.227
		c-12.849-3.468-25.981,0.717-35.491,8.252c-4.793,3.782-8.811,8.457-11.892,13.683c-3.066,5.226-5.114,11.115-5.964,17.102
		c-0.819,5.99-0.519,12.071,0.876,17.878c0.707,2.901,1.68,5.734,2.913,8.449c1.225,2.73,2.756,5.288,4.37,7.619
		c3.226,4.692,6.804,8.643,9.887,12.642c3.119,3.999,5.687,7.985,7.201,12.581c3.163,9.153,2.587,19.918-1.997,29.345l-0.003,0.007
		c-0.09,0.184-0.044,0.411,0.122,0.545c0.192,0.156,0.476,0.126,0.631-0.066c3.374-4.178,5.879-9.224,7.131-14.641
		c1.329-5.401,1.516-11.176,0.418-16.815c-0.249-1.417-0.633-2.809-1.026-4.205l-0.71-2.062c-0.246-0.684-0.539-1.337-0.81-2.009
		c-1.148-2.639-2.499-5.135-3.944-7.481c-2.88-4.702-5.969-8.962-8.363-13.206c-1.198-2.13-2.187-4.227-2.976-6.372
		c-0.788-2.157-1.37-4.388-1.742-6.649c-0.763-4.516-0.727-9.158,0.146-13.582c0.816-4.434,2.515-8.614,4.908-12.414
		c2.366-3.808,5.458-7.164,8.989-9.861c1.752-1.35,3.659-2.556,5.587-3.512c1.919-0.956,3.963-1.696,6.04-2.229
		c2.075-0.542,4.198-0.862,6.281-0.907c2.083-0.039,4.118,0.179,6.03,0.636c1.913,0.467,3.69,1.211,5.276,2.227
		c1.586,0.996,3.042,2.244,4.26,3.805c1.224,1.546,2.236,3.328,3.038,5.239c0.779,1.921,1.286,3.987,1.523,6.082
		c1.025,8.314-2.724,17.848-10.667,21.403c-3.904,1.814-8.646,2.277-12.753,0.38c-2.076-0.921-4.045-2.36-5.549-4.243
		c-1.57-1.847-2.653-4.14-3.125-6.68l-0.002-0.014c-0.035-0.188-0.188-0.34-0.389-0.365c-0.247-0.03-0.472,0.146-0.502,0.393
		c-0.335,2.735,0.206,5.656,1.471,8.257c1.264,2.612,3.211,4.924,5.631,6.746c1.225,0.89,2.578,1.639,4.028,2.228
		c1.44,0.564,2.952,0.955,4.492,1.171c3.078,0.425,6.252,0.193,9.252-0.676c3.015-0.837,5.879-2.281,8.419-4.263
		c2.492-1.972,4.644-4.377,6.291-7.061c3.339-5.357,4.983-11.617,4.823-17.985c-0.202-6.317-2.086-12.671-5.931-18.074
		C759.55,676.475,757.131,674.021,754.325,672.102"/>
	<path clip-path="url(#SVGID_2_)" fill="#231F20" d="M924.216,908.042c0.164-1.065,0.425-2.118,0.63-3.173l0.326-1.578l0.411-1.562
		c0.29-1.034,0.518-2.079,0.818-3.105l0.946-3.063c0.289-1.024,0.72-2.009,1.069-3.012c0.365-1,0.724-1.998,1.165-2.966l1.26-2.918
		l1.41-2.84c7.637-15.253,20.548-25.988,34.42-36.686c6.888-5.409,14.145-10.744,21.174-16.655
		c7.04-5.866,13.866-12.379,19.646-19.888c0.727-0.932,1.404-1.911,2.104-2.864c0.671-0.979,1.337-1.959,1.986-2.955
		c1.265-2.034,2.464-4.1,3.521-6.237c2.123-4.269,3.803-8.743,4.918-13.353c1.124-4.601,1.604-9.356,1.431-14.042l-0.097-1.754
		l-0.205-1.745c-0.107-1.159-0.344-2.306-0.563-3.443c-0.093-0.571-0.235-1.134-0.403-1.691l-0.468-1.667
		c-0.328-1.103-0.768-2.174-1.161-3.239c-0.079-0.215-0.3-0.355-0.537-0.323c-0.274,0.037-0.467,0.289-0.43,0.564l0.003,0.026
		c0.596,4.421,0.535,8.814-0.139,13.068c-0.636,4.255-1.852,8.375-3.523,12.28c-1.657,3.909-3.711,7.626-6.078,11.104
		c-2.358,3.478-5.043,6.706-7.991,9.768c-5.868,6.12-12.597,11.467-19.668,16.607c-7.078,5.131-14.511,10.059-21.854,15.527
		c-7.298,5.491-14.444,11.649-20.604,18.966c-0.771,0.909-1.519,1.843-2.247,2.796c-0.748,0.933-1.445,1.914-2.15,2.885
		c-0.725,0.952-1.336,2.009-2.004,3.007c-0.658,1.01-1.318,2.014-1.891,3.072c-2.479,4.118-4.433,8.5-6.157,12.918
		c-3.356,8.883-5.262,18.224-5.492,27.549c-0.097,4.664,0.25,9.309,0.948,13.862c0.765,4.552,1.947,9.001,3.553,13.252
		c0.078,0.205,0.284,0.344,0.514,0.324c0.277-0.022,0.483-0.267,0.46-0.545l-0.001-0.012c-0.372-4.484-0.568-8.902-0.433-13.289
		C923.048,916.627,923.442,912.297,924.216,908.042"/>
	<path clip-path="url(#SVGID_2_)" fill="#231F20" d="M942.868,784.782c0.364-0.639,0.764-1.264,1.185-1.882
		c0.854-1.23,1.838-2.405,2.909-3.543c2.15-2.271,4.697-4.334,7.443-6.257c2.729-1.941,5.692-3.756,8.727-5.626
		c3.029-1.88,6.128-3.839,9.14-6.063c3.006-2.221,5.86-4.846,8.377-7.662c2.503-2.844,4.689-5.934,6.499-9.209
		c1.801-3.282,3.262-6.721,4.368-10.251c2.137-7.084,2.771-14.557,1.69-21.69c-0.035-0.235-0.232-0.418-0.479-0.426
		c-0.276-0.011-0.509,0.206-0.519,0.483l-0.001,0.006c-0.25,7.06-1.87,13.907-4.655,20.151c-1.4,3.118-3.1,6.077-5.058,8.822
		c-1.957,2.742-4.105,5.329-6.537,7.6c-4.83,4.551-10.65,7.794-16.938,11.098c-3.12,1.675-6.336,3.377-9.527,5.366
		c-3.167,2.005-6.3,4.271-9.175,7.03c-1.439,1.374-2.795,2.887-4.025,4.533c-0.61,0.829-1.196,1.682-1.744,2.568
		c-0.547,0.903-1.067,1.852-1.52,2.815c-1.814,3.86-2.814,8.133-2.661,12.591c0.158,4.441,1.537,9.1,4.685,12.906
		c1.59,1.863,3.489,3.388,5.539,4.554c2.063,1.138,4.268,1.894,6.517,2.353c2.251,0.465,4.569,0.509,6.863,0.239
		c2.299-0.236,4.578-0.971,6.694-2.063c0.522-0.296,1.068-0.526,1.559-0.891c0.497-0.344,0.983-0.701,1.466-1.059
		c0.904-0.81,1.814-1.619,2.564-2.544c1.477-1.865,2.615-3.947,3.253-6.208c0.655-2.247,0.847-4.667,0.425-7.03
		c-0.399-2.318-1.511-4.693-3.127-6.35c-1.582-1.688-3.578-2.833-5.684-3.345c-1.056-0.243-2.13-0.347-3.179-0.231
		c-1.046,0.14-2.044,0.42-2.904,0.91c-0.141,0.08-0.243,0.227-0.261,0.4c-0.028,0.285,0.181,0.54,0.466,0.568l0.029,0.003
		c3.474,0.346,5.794,2.729,6.797,5.106c0.94,2.317,0.483,4.799-0.654,6.966c-0.309,0.532-0.633,1.053-1.004,1.537
		c-0.377,0.479-0.794,0.919-1.227,1.319c-0.425,0.413-0.919,0.703-1.363,1.046c-0.523,0.255-0.988,0.571-1.545,0.775
		c-2.138,0.911-4.755,1.156-7.229,0.714c-1.228-0.25-2.419-0.646-3.477-1.215c-1.038-0.594-1.937-1.32-2.672-2.147
		c-0.674-0.813-1.318-1.887-1.731-3.024c-0.427-1.147-0.68-2.412-0.755-3.734c-0.147-2.646,0.407-5.502,1.514-8.107
		C942.205,786.032,942.52,785.412,942.868,784.782"/>
	<path clip-path="url(#SVGID_2_)" fill="#231F20" d="M689.478,973.952c-9.12,9.625-14.295,21.813-16.195,34.835
		c-0.57,3.908-0.862,8.077-0.419,12.014c0.287,2.56,0.97,3.28,1.441,0.05c1.988-13.63,9.455-26.287,20.051-35.024
		c10.065-8.3,22.291-13.261,33.777-19.196c23.07-11.919,39.772-31.061,44.99-56.931c0.244-1.209,0.408-2.441,0.539-3.678
		c0.2-1.293,0.372-2.592,0.485-3.898c0.268-3.078,0.466-6.145,0.468-9.236c0.001-1.722,0.309-5.467-0.412-7.19
		c-0.426-1.022-0.013-1.666-1.065-1.247c-0.805,0.32-1.017,5.059-1.053,5.481c-0.637,7.337-6.757,14.962-12.408,19.197
		c-7.206,5.398-15.71,6.418-24.313,7.933c-8.094,1.425-15.854,4.056-20.704,11.116c-5.919,8.617-5.889,21.264-5.396,31.31
		C702.053,963.424,695.191,967.922,689.478,973.952 M712.016,957.316c0.007-0.089,0.017-0.179,0.031-0.27
		c0.07-0.441,0.173-0.88,0.305-1.309c0.066-0.214,0.14-0.427,0.222-0.636c0.255-0.661,0.552-1.314,0.896-1.937
		c1.071-1.933,2.414-3.723,4.042-5.223c3.033-2.795,6.878-4.465,10.807-5.565c5.606-1.567,11.49-1.972,17.155-3.264
		c-7.296,5.633-15.498,9.975-23.898,14.103c-3.199,1.574-6.416,3.153-9.587,4.813C711.996,957.789,711.996,957.554,712.016,957.316"
		/>
	<path clip-path="url(#SVGID_2_)" fill="#231F20" d="M618.792,893.343c-0.023-0.605,0.061-5.749-0.779-6.465
		c-1.662-1.418-2.356,8.971-2.407,9.699c-0.98,14.244-1.095,28.6,0.202,42.829c0.972,10.673,1.883,23.078,7.707,32.406
		c4.601,7.369,13.623,12.165,20.368,4.421c3.541-4.065,4.382-9.782,4.987-14.952c0.939-8.032,1.058-16.168,0.604-24.236
		c-0.061-1.079-0.394-10.282-2.122-5.1c-1.34,4.019-1.571,9.211-1.476,13.959c-0.511,0.869-1.028,2.248-1.494,2.808
		c-1.87,2.245-4.636,3.724-7.586,3.726c-6.413,0.003-10.917-5.83-13.334-11.109c-5.038-11.007-5.698-25.262-4.878-37.198
		C618.832,900.557,618.93,896.923,618.792,893.343"/>
	<path clip-path="url(#SVGID_2_)" fill="#231F20" d="M493.559,1047.264c-3.476,0.263-6.156-2.715-7.681-5.479
		c-3.18-5.759-4.119-13.46-4.161-19.964c-0.012-1.946-0.107-3.92-0.328-5.855c-0.037-0.327-0.201-3.118-0.685-3.474
		c-0.959-0.7-0.912,4.96-0.91,5.357c0.05,7.761,0.573,15.547,1.856,23.207c0.963,5.746,1.962,12.434,5.5,17.252
		c2.794,3.808,7.88,6.039,11.221,1.565c1.753-2.348,1.976-5.48,2.093-8.308c0.182-4.393-0.086-8.807-0.661-13.163
		c-0.077-0.582-0.633-5.557-1.358-2.678c-0.563,2.233-0.476,5.058-0.231,7.628c-0.241,0.491-0.466,1.26-0.695,1.582
		C496.597,1046.228,495.158,1047.143,493.559,1047.264"/>
	<path clip-path="url(#SVGID_2_)" fill="#231F20" d="M786.576,1109.876c-0.674,1.878-1.815,6.116-3.727,7.124
		c-2.738,1.445-7.134-2.749-9.543-3.729c-7.149-2.911-15.604-2.627-22.512,0.841c-7.252,3.641-12.019,10.566-16.236,17.228
		c-4.632,7.313-9.252,14.613-14.336,21.626c-24.688,34.048-57.917,55.104-87.833,57.164c-2.468,0.17,42.679,19.222,74.46-23.253
		c9.617-12.853,22.078-28.265,31.42-41.216c9.698-13.443,24.854-17.333,39.324-9.008c3.509,2.018,5.379,1.035,7.088-2.403
		c1.992-4.01,3.348-8.422,4.274-12.792c0.553-2.607,0.98-5.247,1.301-7.905c0.566,1.22,1.321,2.322,2.393,3.173
		c3.909,3.103,8.924,0.815,11.709-2.612c6.878-8.466,6.741-23.181,6.696-33.398c-0.003-0.725,0.036-8.412-1.274-7.276
		c-1.663,1.441-1.433,8.388-1.338,11.548c-0.041-0.183-0.149,0.805-0.459,1.714c-0.562,1.65-1.022,3.192-1.825,4.725
		c-1.307,2.493-3.233,4.758-5.991,5.657c-6.29,2.052-9.075-3.359-9.765-8.71c-0.475-3.688-1.587,1.805-1.693,2.607
		c-0.543,4.099-0.68,8.329-0.434,12.469c-0.079,0.298-0.199,0.943-0.367,1.973C787.548,1106.93,787.104,1108.415,786.576,1109.876"
		/>
	<path clip-path="url(#SVGID_2_)" fill="#231F20" d="M956.597,1093.285c0.404,5.051,0.813,13.105,5.072,16.698
		c4.855,4.097,12.959,1.047,17.94-1.304c6.422-3.031,11.954-7.854,16.2-13.515c9.148-12.2,11.746-27.454,11.848-42.36
		c0.021-3.166-0.377-6.791-1.378-9.803c-0.677-2.04-1.158-2.516-1.176,0.165c-0.109,15.929-4.538,32.508-16.296,43.858
		c-4.9,4.73-10.91,8.381-17.52,10.123c-2.898,0.764-6.257,1.451-9.179,0.377c-0.954-0.35-1.75-1.195-2.332-1.82
		c0.111-0.916,0.215-1.809,0.316-2.215c1.687-6.795,4.016-13.357,4.045-20.442c0.02-4.962,0.124-15.095-4.132-18.628
		c-4.227-3.507-11.334,1.136-14.461,4.164c-4.329,4.189-6.484,9.821-6.641,15.78c-0.083,3.175,0.345,6.429,1.035,9.524
		c0.146,0.658,1.416,5.023,1.487,2.328c0.186-7.078,4.248-13.629,10.465-17.045c2.319-1.274,6.048-2.879,8.74-1.699
		c0.122,0.12,0.234,0.225,0.346,0.328c-0.359,1.903-0.856,3.777-1.359,5.646C957.822,1080.128,956.039,1086.307,956.597,1093.285"/>
	<path clip-path="url(#SVGID_2_)" fill="#231F20" d="M1048.546,973.967c3.044,1.57,7.164,0.978,9.104-2.038
		c2.199-3.413,0.939-9.017,0.373-12.714c-0.089-0.577-0.729-5.956-1.549-5.842c-0.133,0.02-0.191,0.184-0.225,0.293
		c-0.296,0.98-0.05,2.158-0.002,3.16c0.053,1.104,0.036,2.245-0.436,3.269c-0.939,2.035-3.569,2.962-5.679,2.857
		c-1.53-0.076-3.014-0.642-4.293-1.484c-1.501-0.99-2.756-2.389-3.437-4.054c-1.295-3.172-0.045-7.09-1.982-10.033
		c-1.12-1.702-0.755,1.381-0.676,2.269C1040.423,957.242,1040.609,969.875,1048.546,973.967"/>
	<path clip-path="url(#SVGID_2_)" fill="#231F20" d="M747.435,1235.221c2.799-18.104,19.983-27.365,35.918-32.232
		c16.725-5.107,36.832-7.566,49.055-21.478c4.913-5.592,7.51-12.296,7.227-19.75c-0.253-6.643-1.029-16.457-6.73-20.935
		c-5.603-4.398-13.69-1.744-17.872,3.345c-4.75,5.778-5.247,13.714-5.255,20.863c-0.003,2.947,0.347,6.299,1.279,9.104
		c0.625,1.883,1.09,2.346,1.093-0.153c0.008-7.1,1.469-15.248,7.607-19.695c2.319-1.68,5.203-2.746,8.072-2.805
		c4.211-0.087,5.196,1.819,8.426,3.857c0.303,0.711,0.525,1.099,0.676,1.19c-0.021,0.146-0.042,0.275-0.066,0.438
		c-0.333,1.458-0.842,2.881-1.446,4.248c-1.612,3.645-4.066,6.887-6.944,9.626c-5.037,4.794-11.339,8.118-17.768,10.638
		c-22.905,8.979-60.675,10.651-65.426,41.383c-0.4,2.595,0.119,5.434,0.573,7.994
		C745.998,1231.677,747.364,1235.681,747.435,1235.221"/>
	<path clip-path="url(#SVGID_2_)" fill="#231F20" d="M826.612,898.375c-0.028-0.631-0.293-4.397-0.91-2.187
		c-3.776,13.548-1.679,28.261,5.685,40.173c3.899,6.306,8.718,11.968,13.002,18.004c2.317,3.266,4.499,6.644,6.24,10.257
		c1.461,3.031,4.244,8.073,3.686,11.399c-0.442,2.634-0.803,5.842-0.297,8.481c0.331,1.724,0.622,2.394,1.019,0.035
		c2.351-14.008-0.049-27.029-7.924-38.91c-4.094-6.177-8.94-11.812-13.081-17.955c-3.519-5.222-9.786-14.565-7.964-21.103
		C826.782,904.007,826.729,901.015,826.612,898.375"/>
	<path clip-path="url(#SVGID_2_)" fill="#231F20" d="M412.142,783.455c-5.875,2.396-9.252,6.618-11.167,11.67
		c-2.45,5.157-3.318,11.298-3.151,16.847c0.109,3.584,0.976,7.271,2.801,10.328c0.743,1.4,1.692,2.718,2.906,3.838
		c1.346,1.271,3.051,2.273,4.922,2.812c3.736,1.066,7.749,0.317,10.912-1.764c3.146-2.097,5.295-5.241,6.309-8.759
		c0.475-1.802,0.653-3.685,0.336-5.6c-0.298-1.897-1.179-3.896-2.743-5.329c-0.686-0.625-1.453-1.113-2.251-1.488
		c-1.794-1.309-4.021-2.083-6.287-2.153c-4.322-0.135-9.113,1.876-12.481,4.933c0.135-0.64,0.32-1.271,0.567-1.881
		c0.236-0.582,0.528-1.129,0.857-1.652c0.609-0.748,1.269-1.454,1.985-2.101c2.421-2.184,5.422-3.804,8.592-4.571
		c6.492-1.572,13.418,0.382,18.757,4.202c6.684,4.782,9.153,11.318,11.22,18.887c0.027,0.3,0.05,0.561,0.072,0.786
		c-0.107,0.537-0.213,1.073-0.32,1.61c-0.594,2.61-1.445,5.152-2.454,7.629c-1.57,3.854-3.527,7.515-5.649,11.089
		c-1.469,2.474-1.017,7.04-1.014,9.813c0.001,0.852,0.533,6.388,0.986,5.625c6.378-10.744,9.885-22.006,10.452-34.5
		c0.503-11.083-0.194-23.188-7.583-32.117C432.487,784.082,421.608,779.593,412.142,783.455"/>
	<path clip-path="url(#SVGID_2_)" fill="#231F20" d="M438.314,696.366c-7.723-5.82-9.738-14.006-10.878-23.162
		c-0.306-2.46-1.082,0.408-1.206,1.209c-3.803,24.597-2.57,50.579,6.687,73.877c4.71,11.852,12.165,21.705,18.471,32.656
		c3.152,5.475,5.678,11.311,6.543,17.613c0.891,6.493-2.123,13.535-4.705,19.384c-1.254,2.84-1.018,6.772-1.014,9.813
		c0.001,0.931,0.694,6.284,0.985,5.625c5.346-12.108,7.242-25.129,6.992-38.311c-0.251-13.277-4.165-24.224-11.341-35.319
		c-13.234-20.465-24.211-43.692-22.284-68.513c0.701,4.594,1.754,9.208,4.033,13.239c2.901,5.131,7.642,8.44,12.566,11.454
		c5.23,3.201,10.535,6.38,14.799,10.859c2.502,2.629,4.569,5.637,5.975,8.989c0.56,1.337,0.711,3.026,1.359,4.263
		c0.031,0.191,0.06,0.353,0.089,0.501c-0.133,0.465-0.269,0.93-0.428,1.388c-1.045,3.343-0.881,7.465-0.727,10.927
		c0.04,0.887,0.305,5.819,1.213,2.914c4.602-14.733,3.942-34.114-7.484-45.532C452.177,704.462,444.761,701.225,438.314,696.366"/>
	<path clip-path="url(#SVGID_2_)" fill="#231F20" d="M407.416,755.108c2.462-4.157,2.02-10.949,1.509-15.53
		c-0.241-2.169-0.5-1.796-1.018-0.035c-0.345,1.177-0.489,2.602-0.517,4.044c-0.248,0.523-0.793,1.294-1.909,1.947
		c-0.906,0.53-1.958,0.724-2.989,0.771c-2.448,0.112-4.784-0.979-6.473-2.716c-5.511-5.667-4.58-15.168-3.997-22.302
		c0.065-0.805,0.573-7.217-0.245-7.394c-0.921-0.199-0.97,3.409-1.031,4.157c-0.561,6.868-1.026,13.802-0.524,20.689
		c0.4,5.493,1.134,11.975,4.911,16.292C398.358,758.718,404.585,759.887,407.416,755.108"/>
	<path clip-path="url(#SVGID_2_)" fill="#231F20" d="M583.068,1117.896c-1.491,4.967-3.332,9.863-5.487,14.58
		c-0.12,0.264-0.199,0.656,0.067,0.773c0.202,0.09,0.419-0.083,0.567-0.248c0.615-0.68,1.112-1.458,1.599-2.235
		c2.357-3.767,4.469-7.642,6.455-11.613c2.161-4.452,3.924-9.139,5.224-14.023c1.299-4.886,2.042-9.976,1.993-15.204
		c-0.092-5.197-0.902-10.442-2.672-15.468c-1.729-5.023-4.407-9.86-8.117-13.975c-3.635-4.155-8.495-7.436-13.721-9.438
		c-2.623-0.995-5.355-1.669-8.124-2.077c-2.774-0.379-5.587-0.447-8.391-0.239c-2.809,0.188-5.591,0.798-8.299,1.653
		c-2.708,0.857-5.349,2.052-7.781,3.587c-9.771,6.121-16.133,16.651-17.283,27.998c-0.587,5.656,0.259,11.602,2.676,16.894
		c1.206,2.651,2.816,5.172,4.841,7.408c2.049,2.214,4.569,4.098,7.38,5.413c5.996,2.648,12.599,2.218,18.061-0.753
		c2.703-1.529,5.163-3.804,6.643-6.703c0.732-1.438,1.251-3.006,1.487-4.576c0.258-1.57,0.184-3.14-0.047-4.643
		c-0.464-3.016-1.805-5.789-3.774-8.016c-1.961-2.225-4.726-3.816-7.555-4.311c-2.832-0.504-5.662-0.116-8.137,0.934
		c-2.476,1.032-5.163,3.065-6.123,5.664c-0.047,0.127-0.088,0.278-0.014,0.392c0.075,0.116,0.241,0.141,0.37,0.094
		c0.129-0.046,0.23-0.146,0.329-0.241c1.704-1.651,3.921-2.885,6.268-3.296c2.142-0.437,4.356-0.229,6.217,0.52
		c1.888,0.707,3.322,2.017,4.352,3.606c0.989,1.615,1.558,3.506,1.56,5.326c0.024,1.836-0.489,3.488-1.417,4.807
		c-0.942,1.324-2.314,2.34-3.904,3.037c-1.623,0.645-3.44,0.955-5.214,0.896c-1.778-0.09-3.467-0.581-4.87-1.332
		c-3.057-1.704-5.44-4.747-6.882-8.354c-1.402-3.636-1.962-7.625-1.403-11.611c0.882-7.958,5.545-15.709,12.244-19.967
		c6.604-4.306,15.638-5.305,23.42-2.703c3.908,1.276,7.412,3.43,10.399,6.379c1.515,1.439,2.834,3.116,4.027,4.894
		c1.213,1.769,2.234,3.701,3.119,5.708c1.754,4.023,2.897,8.409,3.378,12.895c0.509,4.469,0.311,9.12-0.29,13.746
		C585.613,1108.705,584.445,1113.31,583.068,1117.896"/>
	<path clip-path="url(#SVGID_2_)" fill="#231F20" d="M456.25,924.903c-0.222,1.42-0.271,2.891-0.376,4.312
		c-0.141,1.89-0.239,3.782-0.24,5.677c-0.004,3.706,0.321,7.426,0.897,11.087c0.084,0.539,0.175,1.076,0.271,1.611
		c0.636,3.539,1.529,7.03,2.67,10.438c3.448,10.826,9.344,20.908,16.897,29.669c0.953,1.087,1.986,2.102,2.981,3.157l1.509,1.569
		c0.516,0.51,1.069,0.982,1.602,1.476l3.244,2.924l3.469,2.67l1.746,1.324l1.834,1.208c1.231,0.794,2.437,1.633,3.696,2.385
		c2.589,1.374,5.148,2.881,7.807,4.05c1.322,0.613,2.657,1.168,3.992,1.727c1.345,0.507,2.689,1.048,4.039,1.504
		c2.699,0.975,5.404,1.793,8.104,2.601c5.402,1.527,10.786,2.768,16.059,3.983c5.271,1.206,10.489,2.312,15.515,3.65
		c5.021,1.307,9.944,2.782,14.634,4.658c9.421,3.626,18.004,8.784,24.266,16.092c6.214,7.302,9.865,16.962,10.986,27.164
		c0.569,5.105,0.559,10.345,0.063,15.599c-0.275,2.92-0.74,5.819-1.342,8.688c-0.301,1.436-0.637,2.863-1.001,4.284
		c-0.346,1.351-0.945,2.779-1.119,4.154c0.002-0.015,0.782-0.37,0.859-0.428c0.326-0.243,0.506-0.506,0.708-0.852
		c0.55-0.947,1.01-1.965,1.482-2.953c1.864-3.9,3.422-7.93,4.61-12.087c1.539-5.362,2.449-10.966,2.61-16.667
		c0.18-5.699-0.421-11.509-1.936-17.188c-1.523-5.672-4.004-11.212-7.489-16.152c-3.474-4.916-7.8-9.212-12.539-12.752
		c-4.757-3.537-9.883-6.419-15.133-8.782c-5.263-2.352-10.633-4.261-16.028-5.841c-5.39-1.566-10.711-2.888-15.963-4.159
		c-10.489-2.517-20.615-4.998-29.824-8.873c-9.131-3.816-17.44-9.478-24.765-16.396c-7.211-7.017-13.499-15.224-18.162-24.463
		c-2.686-5.099-4.802-10.504-6.457-16.131c0.554,0.83,1.153,1.633,1.767,2.427c1.273,1.543,2.676,2.991,4.198,4.312
		c3.051,2.632,6.566,4.74,10.359,6.311c3.738,1.485,7.645,2.55,11.546,3.134c7.824,1.273,15.526,1.013,22.87,0.747
		c3.656-0.173,7.249-0.341,10.75-0.393c3.506-0.095,6.93,0.004,10.248,0.283c3.325,0.259,6.515,0.861,9.574,1.701
		c3.03,0.855,5.95,2.143,8.749,3.685c5.579,3.131,10.51,7.585,14.251,12.936c3.783,5.315,6.2,11.676,7.262,18.447
		c1.042,6.783,0.587,13.928-1.359,20.998l0.905,0.425c4.216-6.227,6.566-13.893,6.881-21.741c0.29-7.839-1.446-16.001-5.351-23.186
		c-3.886-7.151-9.594-13.377-16.576-17.797c-3.468-2.25-7.269-4.01-11.242-5.31c-3.955-1.272-8.014-1.978-11.984-2.36
		c-7.977-0.737-15.613-0.078-22.903,0.57c-7.257,0.705-14.256,1.375-21.028,1.097c-3.387-0.148-6.699-0.551-9.934-1.313
		c-1.571-0.398-3.148-0.847-4.67-1.478c-1.546-0.579-3.039-1.31-4.486-2.133c-0.108-0.062-0.217-0.123-0.324-0.186
		c-0.492-0.284-0.976-0.581-1.452-0.89c-0.478-0.312-0.949-0.635-1.41-0.971c-0.462-0.337-0.916-0.688-1.359-1.049
		c-0.444-0.364-0.877-0.741-1.3-1.13c-0.423-0.392-0.835-0.795-1.233-1.211c-0.401-0.418-0.787-0.849-1.16-1.291
		c-0.374-0.445-0.733-0.903-1.077-1.372c-0.345-0.474-0.675-0.958-0.986-1.454c-1.324-2.107-2.322-4.416-2.922-6.833
		c-0.042-0.169-0.135-0.38-0.309-0.364c-0.15,0.014-0.22,0.188-0.254,0.335C456.379,924.154,456.309,924.527,456.25,924.903"/>
	<path clip-path="url(#SVGID_2_)" fill="#231F20" d="M618.788,497.923c-4.304,6.803-5.248,14.822-5.127,22.72
		c0.014,0.884-0.223,4.333,0.739,4.219c0.755-0.089,0.767-6.925,0.76-7.358c-0.046-3.029,3.155-7.499,4.878-9.851
		c2.464-3.361,5.542-6.231,9.019-8.524c6.792-4.479,14.73-6.833,22.669-8.277c13.578-2.468,32.539-1.655,37.277-17.915
		c0.742-2.543,0.662-5.572,0.545-8.195c-0.029-0.643-0.268-4.386-0.909-2.186c-2.723,9.342-12.816,12.835-21.454,14.201
		c-9.922,1.569-19.842,2.247-29.273,6.029C630.218,485.871,623.268,490.842,618.788,497.923"/>
	<path clip-path="url(#SVGID_2_)" fill="#231F20" d="M600.214,558.225c-16.004-10.987-36.759-27.163-32.432-49.088
		c0.705,3.859,2.408,7.324,5.96,10.38c3.274,2.815,7.19,4.768,10.461,7.588c3.248,2.801,5.724,6.559,6.446,10.833
		c0.318,1.885,0.307,3.809,0.518,5.709c0.019,0.171,0.085,0.387,0.257,0.396c0.092,0.005,0.173-0.059,0.234-0.128
		c0.19-0.216,0.267-0.508,0.329-0.789c0.369-1.665,0.325-3.337,0.386-5.027c0.244-7.163-0.223-14.41-4.975-20.187
		c-2.979-3.624-7.148-5.845-10.894-8.547c-2.338-1.687-4.552-3.668-5.911-6.211c-1.066-1.995-1.425-4.071-1.824-6.254
		c-0.013-0.071-0.044-0.122-0.069-0.188c-0.082-0.216-0.107-0.457-0.171-0.679c-0.027-0.098-0.084-0.394-0.232-0.369
		c-0.189,0.033-0.291,0.599-0.327,0.728c-5.619,20.395-2.643,43.998,12.858,59.261c8.198,8.073,18.361,13.67,27.454,20.611
		c8.721,6.656,20.24,17.693,20.09,29.712c-0.012,0.882-0.207,4.332,0.738,4.22c0.765-0.091,0.755-6.921,0.761-7.359
		c0.116-9.317-2.058-17.643-7.663-25.216C616.297,569.635,608.322,563.792,600.214,558.225"/>
	<path clip-path="url(#SVGID_2_)" fill="#231F20" d="M622.222,469.522c3.891-2.147,4.527-7.278,5.091-11.226
		c0.389-2.725,0.699-5.741,0.296-8.48c-0.258-1.753-0.684-2.369-1.017-0.035c-0.679,4.752-3.884,10.659-9.447,7.658
		c-4.139-2.233-6.704-8.752-6.236-13.234c0.238-2.272,0.995-6.076,0.029-8.213c-0.831-1.839-0.963,1.188-1.06,2.116
		c-0.899,8.602-1.895,19.572,2.904,27.291C614.743,468.555,618.43,471.614,622.222,469.522"/>
	<path clip-path="url(#SVGID_2_)" fill="#231F20" d="M1077.432,883.793l-0.982,0.185c1.628,12.319,2.498,24.689,2.422,37.032
		c0.006,1.543,0.003,3.083-0.061,4.625l-0.114,4.621c-0.088,3.078-0.314,6.153-0.465,9.224c-0.277,3.066-0.479,6.134-0.817,9.189
		c-0.371,3.053-0.644,6.109-1.124,9.146l-0.653,4.557c-0.227,1.516-0.514,3.025-0.768,4.537c-0.27,1.51-0.503,3.023-0.803,4.527
		l-0.911,4.506c-0.555,3.012-1.305,5.984-1.959,8.973c-0.688,2.981-1.497,5.936-2.237,8.899c-3.23,11.799-7.127,23.391-11.69,34.695
		c-9.103,22.625-20.963,44.035-34.916,63.845c-7.008,9.89-14.567,19.35-22.73,28.274l-6.131,6.688l-1.534,1.67l-1.612,1.597
		l-3.224,3.193c-2.154,2.123-4.281,4.271-6.453,6.372l-6.734,6.079c-4.402,4.143-9.178,7.872-13.802,11.759
		c-1.176,0.949-2.294,1.966-3.516,2.859l-3.618,2.738l-7.225,5.475c-2.439,1.784-4.963,3.457-7.438,5.191l-3.728,2.58
		c-1.243,0.857-2.471,1.738-3.766,2.521l-7.671,4.842l-3.83,2.424c-1.292,0.782-2.612,1.523-3.917,2.287l-7.844,4.553l-1.96,1.137
		l-2.005,1.063l-4.013,2.117l-8.022,4.23l-8.186,3.918c-10.894,5.26-22.11,9.83-33.388,14.202
		c-45.342,16.754-93.542,27.017-141.356,27.007c-23.895,0.016-47.632-2.97-70.33-9.166l-8.441-2.538
		c-1.42-0.387-2.789-0.908-4.165-1.413l-4.13-1.506l-4.132-1.5c-1.373-0.51-2.69-1.146-4.038-1.711
		c-2.678-1.175-5.379-2.301-8.042-3.505c-5.186-2.677-10.491-5.128-15.518-8.131c-1.285-0.696-2.505-1.509-3.761-2.261
		c-1.242-0.775-2.509-1.507-3.731-2.315c-2.432-1.637-4.921-3.185-7.289-4.926l-3.59-2.554l-3.512-2.67l-1.758-1.334l-1.718-1.39
		l-3.436-2.784c-3.107-2.648-6.2-5.323-9.223-8.089c0.001,0,0.002,0.001,0.003,0.001c9.24,0.149,18.47-0.291,27.61-1.36
		c21.67-2.54,43.28-8.88,61.99-20.32c8.09-4.95,15.63-11.14,21.46-18.67c7.44-9.61,10.21-21.04,11.29-32.97
		c0.68-7.554,1.485-15.607,0.953-23.361c0.036-2.792,0.019-5.576-0.046-8.34c9.574,4.399,20.126,5.677,31.198,1.261
		c7.494-2.988,13.267-7.603,17.706-13.271c0.294,5.19,0.765,9.978,1.47,9.719c11.252-4.131,21.237-11.478,28.386-21.086
		c0.055,1.121,0.12,2.241,0.223,3.357c0.057,0.619,0.832,6.979,1.641,6.504c12.678-7.419,24.459-16.62,33.283-28.479
		c11.07-14.879,14.468-32.052,15.975-50.203c0.089-1.077,0.151-2.166,0.213-3.255c5.643,19.525,12.465,38.72,20.867,57.058
		c6.261,13.664,14.116,29.541,28.346,36.411c13.369,6.455,26.981,1.529,34.724-10.666c10.695-16.846,10.681-40.463,10.85-59.563
		c0.053-5.965-0.156-11.883-0.614-17.762c10.09,11.816,22.902,20.768,39.055,22.382c12.119,1.211,22.771-2.358,32.185-8.479
		c2.511,11.485,5.282,22.913,8.287,34.28c0.715,2.703,2.03-1.868,2.114-2.16c1.104-4.112,1.401-8.883,1.667-13.083
		c0.558-8.784,1.382-18.485-0.897-27.11c-0.056-0.209-0.108-0.418-0.162-0.626c9.09-8.464,16.846-18.835,23.544-28.34
		c22.222-31.537,44.354-63.137,66.53-94.705c1.494-2.127,1.691-7.857,1.93-10.05c0.606-5.584,0.885-11.318,0.857-16.933
		c-0.021-4.358,0.077-8.89-0.754-13.182c-0.208-1.079-0.528-4.122-1.955-2.288c-16.538,21.257-43.507,35.568-70.58,36.133
		c-3.593,0.073-7.207-0.101-10.761,0.428c-8.592,1.277-15.639,6.719-20.442,13.773c-4.122,6.058-5.898,13.414-7.119,20.54
		c-2.242,13.091-2.679,26.753-2.138,40c0.33,8.098,1.229,16.143,2.43,24.149c-3.828,1.579-7.881,2.755-12.208,3.404
		c-29.066,4.361-51.523-19.393-63.614-42.934c-6.869-13.375-12.208-27.573-17.624-41.58c-5.87-15.177-11.424-30.477-16.656-45.885
		c-0.887-2.614-1.748-5.237-2.617-7.856c10.784-8.111,21.095-16.903,30.891-26.194c6.485,21.002,14.032,41.68,22.548,61.941
		c1.138,2.707,1.936-2.736,1.875-2.354c0.671-4.209,0.467-8.99,0.293-13.201c-0.356-8.614-0.319-18.757-3.728-26.867
		c-4.022-9.569-7.808-19.228-11.356-28.973c5.299-5.382,10.443-10.89,15.409-16.506c24.772-28.021,46.287-58.697,66.935-89.84
		c2.59-3.204,4.899-6.663,6.858-10.396c1.244-2.372,0.86-7.877,0.868-10.196c0.009-2.665-0.063-5.356-0.203-8.044
		c1.257,1.831,2.509,3.666,3.737,5.515c8.16,12.12,16.04,24.42,23.689,36.85c7.65,12.43,14.971,25.07,21.831,37.96
		c13.77,25.74,25.77,52.48,35.14,80.28c0.08,0.24,0.34,0.391,0.6,0.32c0.271-0.07,0.43-0.34,0.36-0.61
		c-7.28-28.49-17.83-56.17-30.38-82.87c-6.301-13.33-13.08-26.45-20.2-39.36c-7.12-12.92-14.71-25.57-22.45-38.11
		c-1.92-3.14-3.9-6.25-5.87-9.36l-5.939-9.33l-6.04-9.26c-2.011-3.09-4.04-6.16-6.12-9.2c-8.22-12.23-16.75-24.24-25.32-36.23
		c-8.66-11.91-17.37-23.79-26.3-35.5c-8.92-11.71-18-23.29-27.15-34.81c-18.34-23.01-37.01-45.71-55.88-68.22l-14.04-16.86
		l-6.909-8.48c-2.311-2.82-4.601-5.66-6.86-8.51c-9.17-11.34-17.98-22.93-26.67-34.58c-17.13-23.5-33.58-47.4-48.84-72.08
		c-3.91-6.12-7.53-12.4-11.301-18.62c-1.859-3.12-3.63-6.29-5.449-9.44c-1.801-3.16-3.681-6.29-5.38-9.5
		c-1.721-3.21-3.521-6.39-5.291-9.58l-3.879-7.37l-1.23-2.33l-1.04-1.95l-3.33,7.25l-0.1,0.22c-2.32,4.78-4.6,9.56-6.95,14.31
		c-2.39,4.73-4.73,9.48-7.16,14.19c-9.8,18.76-20.32,37.11-31.59,54.95c-22.53,35.69-48.03,69.35-76.25,100.53
		c-7.05,7.83-14.29,15.54-21.57,23.29c-7.27,7.75-14.54,15.59-21.71,23.58c-25.663,28.574-48.618,59.815-60.154,96.619
		c-19.852,13.167-38.189,28.851-54.402,46.653c-46.536,51.096-71.11,119.903-64.359,189c2.023,20.706,7.032,41.761,19.283,58.576
		c12.548,17.225,32.446,28.876,53.595,31.489c21.149,2.614,43.246-3.82,59.75-17.302c28.416-23.21,35.886-60.268,46.959-93.291
		c4.651-13.873,10.936-26.85,24.099-34.392c10.136-5.808,21.684-8.724,31.544-14.905c2.936,37.41,9.486,78.635,37.546,105.514
		c25.666,24.587,66.113,29.715,100.143,27.076c41.782-3.236,80.149-19.085,114.193-42.037c2.711,9.075,5.52,18.121,8.456,27.131
		c1.599,4.903,3.221,9.81,4.866,14.714c8.595,26.27,17.759,52.357,27.462,78.267c5.561,14.846,11.206,29.844,14.417,45.409
		c0.646,3.128,1.231,6.287,1.649,9.458c-0.011,0.04-0.021,0.078-0.03,0.104c-0.766,2.593-1.834,5.11-3.087,7.506
		c-6.045,11.549-17.643,17.865-30.558,13.845c-14.309-4.455-22.305-17.954-28.577-30.599
		c-16.201-32.655-26.549-69.023-33.848-104.625c-1.752-8.546-3.741,6.336-3.886,7.762c-0.97,9.572-2.063,20.563-0.104,30.115
		c2.076,10.126,4.391,20.272,6.979,30.371c-0.145,1.275-0.829,5.488-1.59,7.732c-0.957,2.826-2.194,5.58-3.545,8.239
		c-2.68,5.281-6.03,10.21-9.853,14.729c-5.314,6.282-11.586,11.635-18.31,16.354c0.934-9.851,0.853-19.821,0.607-29.168
		c-0.036-1.374-1.099-16.475-3.334-8.015c-1.508,5.708-2.013,11.956-2.122,18.142c-0.034,0.147-0.069,0.286-0.104,0.403
		c-0.67,2.26-1.57,4.451-2.562,6.587c-2.193,4.725-5.01,9.162-8.389,13.131c-4.048,4.755-8.914,8.705-14.266,11.854
		c0.89-8.477,1.025-16.935,0.936-24.583c-0.05-4.267,0.074-8.951-0.754-13.182c-0.345-1.763-0.473-3.61-1.955-2.288
		c-1.752,1.562-1.749,8.262-1.931,10.05c-0.301,2.973-0.535,5.963-0.686,8.957c-0.55,1.794-0.949,3.612-1.676,5.38
		c-1.931,4.696-4.548,9.143-7.872,12.99c-6.16,7.13-15.047,12.21-24.416,13.482c-18.958,2.572-34.999-9.005-46.974-22.652
		c-2.101-2.674-4.257-5.302-6.429-7.895c-0.645-0.77-2.152,6.974-2.107,6.495c-0.624,4.133-0.937,8.307-1.15,12.479
		c-0.238,4.661-0.387,9.365-0.176,14.03c0.122,2.715-0.434,7.96,1.223,10.159c1.916,2.541,3.988,5.103,6.193,7.61
		c4.746,6.061,9.16,12.387,12.752,19.203c2.35,4.459,4.359,9.116,5.797,13.952c0.06,0.204,0.1,0.417,0.152,0.625
		c-0.001,0.015-0.002,0.027-0.003,0.043c-0.183,0.366-0.368,0.73-0.556,1.088c-1.96,3.75-4.45,7.21-7.26,10.37
		c-5.68,6.4-12.8,11.54-20.19,15.79c-15.93,9.149-33.71,14.85-51.8,17.729c-26.086,4.148-53.042,2.812-79.049-2.441
		c-9.481-13.311-18.233-27.275-26.501-41.592c-6.134-10.585-11.939-21.41-17.612-32.344c-5.713-10.915-11.189-21.982-16.688-33.134
		c-11.031-22.26-22.113-44.69-34.248-66.638c-14.461-26.153-30.531-51.374-49.774-74.287
		c-11.814-14.063-24.586-27.531-38.328-39.725c-1.69-1.459-3.39-2.899-5.11-4.319c-1.35-1.12-2.72-2.23-4.1-3.311
		c-0.15,1.19-0.23,2.421-0.29,3.44c-0.04,0.87-0.08,1.58-0.12,2.01c-0.57,5.61-0.93,11.29-0.86,16.93
		c1.09,83.44,4.52,176.82,61.15,243.82c23.74,28.08,55.44,48.54,89.72,61.36c15.62,5.84,31.979,10.35,48.62,13.19h0.003
		c4.958,5.807,10.138,11.453,15.584,16.878c4.564,4.626,9.384,9.028,14.319,13.306l3.77,3.137l1.889,1.564l1.936,1.512l3.875,3.021
		l3.971,2.905c2.623,1.972,5.388,3.757,8.094,5.618c1.361,0.922,2.773,1.771,4.157,2.658c1.4,0.863,2.764,1.786,4.2,2.595
		c5.621,3.438,11.557,6.335,17.404,9.389c2.993,1.375,6.023,2.663,9.036,3.993c1.515,0.644,3.004,1.357,4.541,1.939l4.624,1.71
		l4.626,1.704c1.541,0.57,3.078,1.155,4.656,1.601l9.41,2.872c25.242,7.104,51.338,10.139,77.159,10.048l4.847,0.016l4.835-0.161
		c3.221-0.127,6.447-0.206,9.664-0.375c6.417-0.486,12.852-0.852,19.223-1.682l4.788-0.545l2.393-0.276l2.381-0.353l9.518-1.412
		c3.169-0.486,6.309-1.12,9.464-1.675l4.726-0.861c1.569-0.31,3.13-0.663,4.694-0.994c25.021-5.298,49.559-12.586,73.301-22.027
		c11.836-4.794,23.557-9.892,34.913-15.75l8.531-4.354l8.365-4.677l4.178-2.343l2.086-1.174l2.044-1.254l8.166-5.015
		c21.661-13.554,41.973-29.314,60.34-47.096l6.855-6.695c2.209-2.31,4.371-4.664,6.555-6.994l3.269-3.503l1.633-1.751l1.554-1.826
		l6.196-7.308l3.087-3.659l2.951-3.782c1.994-2.498,3.862-5.094,5.767-7.657c1.911-2.56,3.688-5.218,5.534-7.818
		c1.782-2.647,3.548-5.306,5.284-7.981c6.885-10.74,13.081-21.897,18.6-33.359c1.428-2.841,2.674-5.771,4.016-8.65
		c1.291-2.904,2.511-5.84,3.752-8.762c2.362-5.898,4.61-11.836,6.615-17.857c8.122-24.029,13.272-49.039,14.788-74.217
		C1085.231,933.39,1083.189,908.068,1077.432,883.793 M984.609,915.521c1.549-0.405,3.147-0.583,4.742-0.728
		c8.443-0.769,17-0.681,25.325-2.462c0.455-0.097,0.91-0.198,1.363-0.302c0.229-0.053,0.457-0.106,0.685-0.159
		c0.008-0.002,0.426-0.076,0.448-0.107c-1.008,1.432-2.013,2.863-3.019,4.296c-11.553,16.445-23.777,36.314-41.075,47.726
		c-2.261-10.698-4.258-21.452-5.881-32.239C970.415,924.517,976.92,917.535,984.609,915.521 M879.341,763.392
		c-1.423-4.785-2.793-9.586-4.102-14.404c-0.817-3.009-1.604-6.025-2.378-9.045c1.97-4.897,4.969-9.073,9.93-11.811
		c6.966-3.842,15.206-3.968,22.924-4.757c3.864-0.394,7.726-0.933,11.563-1.624C905.411,736.377,892.85,750.382,879.341,763.392
		 M643.093,830.418c-17.388-7.886-30.673-21.173-39.705-37.892c-4.699-8.697-8.115-17.964-10.438-27.566
		c-1.193-4.932-1.571-7.676-2.142-11.425c-0.042-0.276-0.132-1.007-0.191-1.495c-0.09-0.839-0.18-1.679-0.269-2.518
		c0.019-0.015,0.039-0.03,0.059-0.046c1.438-1.186,1.337-5.242,1.412-6.558c0.295-5.134,0.072-10.456-0.314-15.572
		c-0.389-5.17-0.844-10.375-1.856-15.465c-0.118-0.595-1.631-6.859-2.312-6.297c-9.194,7.583-20.638,10.778-31.251,15.771
		c-10.513,4.945-18.535,12.241-24.045,22.525c-5.511,10.288-8.549,21.79-11.947,32.893c-3.394,11.087-6.788,22.197-11.147,32.951
		c-8.762,21.615-21.992,41.023-43.399,51.618c-32.546,16.111-81.139,9.224-98.45-25.943c-7.623-15.484-7.786-33.647-5.131-50.701
		c8.229-52.871,26.999-101.934,60.019-144.372c13.668-17.566,29.091-33.872,45.68-49.174c-0.584,2.023-1.143,4.059-1.656,6.117
		c-7.48,30.02-7,62.31,3.56,91.4c4.69,12.91,12.08,25.89,24.44,31.89c6.229,3.03,13.91,3.95,20,0.64c3.81-2.06,6.65-5.55,9-9.2
		c14.97-23.24,12.69-53.23,30.36-75.39c6.95-8.72,20.26-17.75,29.47-6.63c3.98,4.8,6.22,11.11,8.8,16.71
		c2.8,6.07,5.45,12.25,8.58,18.16c5.05,9.49,12.5,19.79,23.81,21.83c11.013,1.989,21.38-4.6,27.876-13.256
		c0.727,5.007,1.681,9.692,2.666,9.389c14.926-4.592,27.688-14.073,36.386-27.057c0.129-0.193,0.249-0.388,0.376-0.581
		c0.052,0.279,0.089,0.561,0.145,0.839c0.119,0.597,1.425,6.531,2.207,6.012c14.393-9.565,28.184-20.346,38.188-34.627
		c12.521-17.873,14.272-37.827,13.275-58.986c5.67,13.949,11.538,27.864,18.822,40.958c9.254,16.638,22.938,33.813,41.687,40.024
		c19.329,6.404,37.651-5.451,48.168-21.205c17.509-26.226,13.825-60,7.814-89.259c-0.144-0.699-1.8-10.5-3.688-10.234
		c-1.447,0.203-1.133,5.994-0.884,9.047c-0.016,0.069-0.03,0.126-0.047,0.204c-0.174,0.77-0.275,1.56-0.454,2.331
		c-0.526,2.255-1.294,4.454-2.255,6.559c-1.899,4.165-4.646,7.819-8.114,10.81c-6.727,5.8-15.384,8.615-24.205,8.413
		c-3.488-0.08,2.515,33.494,3.302,36.599c0.2,0.791,0.4,1.583,0.602,2.374c-9.573,4.274-20.342,4.806-30.877-0.071
		c-16.398-7.591-27.788-22.737-36.217-38.216c-9.46-17.371-16.35-36.17-23.949-54.394c-9.781-23.455-19.563-46.91-29.343-70.365
		c-0.144-0.344-0.276-0.63-0.405-0.891c14.24-11.836,22.605-30.085,30.092-47.244c-1.004,14.006-1.39,28.035-0.528,42.1
		c1.124,18.364,2.794,40.408,14.715,55.368c0.858,1.078,0.854-5.562,0.837-6.01c-0.092-2.574,0.318-8.174-1.439-10.381
		c-9.071-11.383-11.543-26.514-12.147-40.694c-0.577-13.545,0.554-27.056,1.826-40.527c0.235-2.492,0.506-4.98,0.863-7.459
		c0.327-2.264,0.723-4.529,0.8-6.82c0.074-2.219-0.412-4.316-0.641-6.505c-0.1-0.962-1.364-7.073-1.764-6.178
		c-9.98,22.379-19.1,48.259-41.253,61.576c-9.58,5.759-21.502,8.536-32.503,5.768c-7.424-1.869-14.054-6.434-18.575-12.611
		c-1.537-2.1-2.709-4.531-2.959-7.12c-0.225-2.337,0.307-4.686,1.089-6.899c3.098-8.762,9.389-16.908,16.871-22.361
		c1.77-1.29,3.83-2.58,6.08-3.76v0.04c0.1,7.71,1.02,16.36,6.38,22.36c5.08,5.69,12.98,7.21,19.85,3.86
		c6.78-3.32,9.31-9.83,9.26-17.01c-0.051-6.97-0.88-14.87-6.061-20.05c-5.6-5.6-14.01-5.57-21.27-3.65
		c1.19-1.95,2.49-3.84,3.89-5.63c9.22-11.77,22.31-19.86,35.97-25.51c1.851-0.77-24.6-4.72-40.75,20.24
		c-2.67,4.12-4.52,8.63-5.76,13.27c-0.112,0.421-3.044,1.501-3.535,1.774c-1.193,0.666-2.356,1.386-3.486,2.155
		c-2.25,1.532-4.364,3.262-6.318,5.157c-8.497,8.24-13.651,19.364-14.67,31.129c-0.989,11.401,1.55,24.351,9.368,33.084
		c1.587,1.774,3.381,3.359,5.338,4.713c10.759,7.444,24.787,7.174,36.535,2.287c4.34-1.805,8.25-4.114,11.813-6.809
		c-0.189,2.811,0.012,6.638,0.065,7.367c0.683,9.267,1.375,20.285,5.01,29.001c9.654,23.151,19.309,46.301,28.962,69.451
		c0.883,2.117,1.755,4.243,2.624,6.372c-0.004,5.413,0.086,5.027-1.316,10.041c-0.914,3.271-2.089,6.456-3.483,9.552
		c-3.007,6.672-7.001,12.891-11.757,18.45c-6.021,7.039-12.985,13.123-20.36,18.68c0.102-5.869-0.134-11.768-0.503-17.597
		c-0.31-4.886-0.813-9.951-1.772-14.762c-0.058-0.288-0.824-5.766-2.207-6.012c-2.185-0.387-1.08,15.358-2.021,19.955
		c-0.651,3.176-1.646,6.312-2.806,9.336c-2.533,6.599-6.116,12.866-10.739,18.226c-5.717,6.628-12.681,11.957-20.428,15.836
		c0.271-6.459,0.161-12.899,0.127-18.986c-0.06-9.35-0.17-19.6-2.91-28.6c-0.4-1.33-0.73-3.48-2.09-1.98
		c-1.5,1.66-0.83,8.02-0.83,9.73c0.04,6.72,0.28,9.06-0.62,15.41c-0.91,6.43-2.93,12.92-6.5,18.39
		c-5.69,8.73-16.21,15.61-26.96,14.38c-11.03-1.26-18.08-10.28-23.08-19.35c-5.92-10.76-9.56-22.86-16.07-33.27
		c-2.41-3.86-5.81-7.72-10.32-9.05c-6.31-1.86-12.65,1.59-17.25,5.66c-23.03,20.38-21.5,53.14-34.57,78.72
		c-2.17,4.26-4.95,8.4-9.01,10.91c-6.16,3.79-14.27,3.1-20.83,0.07c-12.66-5.85-20.52-19.41-22.47-33.22
		c-1.95-13.8,1.25-27.84,5.85-41c14.37-41.1,42.05-76.08,71.05-108.55c41.67-46.65,81.56-92.01,112.27-146.94
		c10.48-18.72,19.97-37.96,28.34-57.66c2.1-4.92,4.09-9.89,6.13-14.82c1.32-3.43,2.61-6.88,3.89-10.32
		c0.11,0.31,0.21,0.62,0.32,0.93c1.28,3.47,2.54,6.97,3.859,10.43c1.271,3.5,2.7,6.92,4.16,10.33l2.181,5.13
		c0.72,1.71,1.43,3.43,2.239,5.09l4.74,10.08c1.57,3.38,3.34,6.63,5.021,9.95c13.6,26.43,30.05,51.26,47.66,75.04
		c4.669,6.226,9.373,12.421,14.134,18.566c0.003,1.672,0.072,3.337,0.175,4.957c0.359,5.664-2.178,12.292-3.675,17.724
		c-1.721,6.243-3.643,12.432-5.203,18.719c-3.034,12.222-4.827,25.189-3.627,37.782c0.863,9.064,6.948,20.325,17.858,16.278
		c11.24-4.169,10.797-19.939,10.486-29.651c-0.051-1.583,0.273-5.833-1.379-3.332c-0.604,0.916-0.804,2.087-0.934,3.156
		c-0.114,0.958-0.034,1.911-0.229,2.878c-0.195,0.976-0.516,1.927-0.946,2.824c-0.86,1.794-2.166,3.381-3.797,4.527
		c-3.089,2.172-7.263,2.708-10.802,1.389c-3.538-1.32-6.342-4.458-7.255-8.123c-0.7-2.81-0.334-5.78,0.335-8.599
		c0.392-1.646,0.883-3.266,1.326-4.899c0.449-1.655,0.775-3.335,1.235-4.985c4.463-16.02,8.273-31.337,8.791-47.624
		c3.525,4.516,7.075,9.01,10.685,13.453c2.3,2.89,4.649,5.73,7.01,8.57l7.061,8.52l14.26,16.85l28.439,33.52
		c9.43,11.19,18.811,22.44,28.13,33.72c4.671,5.62,9.28,11.31,13.91,16.97c4.58,5.7,9.2,11.36,13.74,17.09
		c9.18,11.39,18.14,22.94,27.05,34.52c8.811,11.66,17.59,23.34,26.061,35.24c3.621,4.957,7.146,9.977,10.688,14.989
		c-0.175,0.265-0.347,0.528-0.521,0.792c-7.472,9.273-17.562,16.134-28.615,20.945c-15.529,6.759-31.462,8.372-48.033,10.522
		c-8.747,1.136-16.351,4.092-21.53,11.534c-5.91,8.493-6.397,19.779-6.361,29.748c0.063,16.805,2.481,33.135,6.125,49.269
		c-10.214,9.261-20.97,17.938-32.371,25.883c-2.098-7.066-4.166-14.143-6.176-21.234c-3.461-12.606-6.715-25.271-9.74-37.988
		c-0.341-1.436-0.417-2.95-1.274-2.71c-0.383-1.483-0.777-2.962-1.157-4.445c-0.698-2.729-2.037,1.898-2.116,2.168
		c-1.103,4.11-1.399,8.877-1.665,13.075c-0.56,8.822-1.32,18.443,0.897,27.109c2.768,10.813,5.649,21.591,8.623,32.34
		c-25.595,15.906-53.861,27.81-83.473,33.535C710.237,845.009,673.691,844.294,643.093,830.418 M668.94,380.139
		c9.26-4.21,20.73-5.99,27.8,1.45c1.021,1.08,1.87,2.32,2.56,3.62c0.29,0.55,0.48,1.17,0.73,1.75c-1.32,2.94-2.14,5.43-4.87,7.63
		c-4.26,3.43-10.34,4.78-15.61,3.17c-3.2-0.99-5.94-3.08-7.98-5.7C668.59,388.239,667.831,384.779,668.94,380.139 M391.041,1080.779
		c-26.6-25.94-44.03-59.64-54.54-95c-6.24-21-9.96-42.72-12.08-64.51c-1.16-11.91-1.72-20.95-2.18-32
		c-0.25-6.09-0.44-12.19-0.58-18.29c-0.07-2.88-0.13-5.771-0.18-8.66c-0.01-0.24-0.02-0.92-0.03-1.42l-0.06-4.86
		c-0.01-1.05-0.02-2.12-0.03-3.21c0.89,0.851,1.78,1.7,2.66,2.55c3.21,3.021,6.322,6.142,9.462,9.223
		c4.102,4.425,8.061,8.964,11.764,13.727c7.86,9.511,14.891,19.662,21.665,29.923l4.899,7.825c0.808,1.308,1.658,2.586,2.432,3.918
		l2.32,3.993l4.635,7.977l4.409,8.117l2.211,4.048c0.735,1.352,1.414,2.738,2.124,4.104l4.213,8.221
		c1.403,2.739,2.707,5.542,4.064,8.308c1.336,2.781,2.744,5.514,4.029,8.325c10.53,22.33,20.279,45.082,30.204,67.927
		c4.985,11.398,10.022,22.871,15.329,34.252c5.326,11.369,10.879,22.676,16.793,33.848c4.057,7.695,8.311,15.312,12.771,22.834
		c-0.008-0.003-0.016-0.005-0.024-0.008C445.36,1121.299,415.23,1104.379,391.041,1080.779"/>
	<path clip-path="url(#SVGID_2_)" fill="#231F20" d="M390.118,1017.409c-6.753-9.619-13.129-19.474-18.892-29.699
		c-5.76-10.225-10.932-20.788-15.511-31.638c-4.622-10.839-8.54-21.991-12.114-33.35c-0.071-0.228-0.299-0.379-0.545-0.346
		c-0.274,0.036-0.467,0.288-0.431,0.563c1.572,11.861,4.511,23.547,8.335,34.938c3.868,11.381,8.735,22.443,14.485,33.028
		c5.748,10.585,12.356,20.727,19.945,30.076c7.591,9.337,16.019,18.013,25.501,25.376c0.18,0.14,0.438,0.144,0.623-0.005
		c0.218-0.174,0.253-0.49,0.08-0.707C404.142,1036.313,396.869,1027.043,390.118,1017.409"/>
</g>
</svg>
